<svg xmlns="http://www.w3.org/2000/svg" xmlns:xlink="http://www.w3.org/1999/xlink" xmlns:lucid="lucid" width="1502.24" height="929.32"><g transform="translate(-368.87612955028965 -394.12527580700527)" lucid:page-tab-id="0_0"><path d="M851.54 698.1a6 6 0 0 1 6-6h708.84a6 6 0 0 1 6 6v437.18a6 6 0 0 1-6 6H857.54a6 6 0 0 1-6-6zM369.88 696.4a6 6 0 0 1 6-6h405.15a6 6 0 0 1 6 6v205a6 6 0 0 1-6 6H375.88a6 6 0 0 1-6-6z" stroke="#000" stroke-width="2" fill="#fff"/><path d="M1327.58 875.64a6 6 0 0 1 6-6h167.67a6 6 0 0 1 6 6v75a6 6 0 0 1-6 6h-167.67a6 6 0 0 1-6-6z" stroke="#000" stroke-width="2" fill="#fff"/><use xlink:href="#a" transform="matrix(1,0,0,1,1339.5746055461295,881.6439616486862) translate(13.774739583333329 25.52777777777778)"/><use xlink:href="#b" transform="matrix(1,0,0,1,1339.5746055461295,881.6439616486862) translate(70.55642361111111 25.52777777777778)"/><use xlink:href="#c" transform="matrix(1,0,0,1,1339.5746055461295,881.6439616486862) translate(30.92426215277778 57.79340277777778)"/><path d="M459.78 834.9a6 6 0 0 1 6-6H656.7a6 6 0 0 1 6 6v57.16a6 6 0 0 1-6 6H465.78a6 6 0 0 1-6-6z" fill="none"/><use xlink:href="#d" transform="matrix(1,0,0,1,464.78253531472376,833.8968479317126) translate(0 21.95095486111111)"/><use xlink:href="#e" transform="matrix(1,0,0,1,464.78253531472376,833.8968479317126) translate(10.52517361111111 21.95095486111111)"/><use xlink:href="#f" transform="matrix(1,0,0,1,464.78253531472376,833.8968479317126) translate(129.23177083333331 21.95095486111111)"/><use xlink:href="#g" transform="matrix(1,0,0,1,464.78253531472376,833.8968479317126) translate(0 54.21657986111111)"/><path d="M1104.2 696.4a6 6 0 0 1 6-6H1360a6 6 0 0 1 6 6v24.88a6 6 0 0 1-6 6h-249.8a6 6 0 0 1-6-6z" fill="none"/><use xlink:href="#h" transform="matrix(1,0,0,1,1109.2089368236038,695.3851429107071) translate(0 21.58376736111111)"/><use xlink:href="#i" transform="matrix(1,0,0,1,1109.2089368236038,695.3851429107071) translate(45.06293402777778 21.58376736111111)"/><use xlink:href="#j" transform="matrix(1,0,0,1,1109.2089368236038,695.3851429107071) translate(65.40798611111111 21.58376736111111)"/><use xlink:href="#k" transform="matrix(1,0,0,1,1109.2089368236038,695.3851429107071) translate(148.10112847222223 21.58376736111111)"/><path d="M1295.74 1208.25a7.8 7.8 0 0 1 7.55-5.8h116a4.6 4.6 0 0 1 4.44 5.8l-28.9 108.4a7.8 7.8 0 0 1-7.55 5.8h-116a4.6 4.6 0 0 1-4.46-5.8z" stroke="#000" stroke-width="2" fill="#fff"/><use xlink:href="#l" transform="matrix(1,0,0,1,1270.290795162327,1207.4496116851033) translate(53.45942708333334 31.84027777777778)"/><use xlink:href="#m" transform="matrix(1,0,0,1,1270.290795162327,1207.4496116851033) translate(26.24653645833333 64.10590277777777)"/><use xlink:href="#n" transform="matrix(1,0,0,1,1270.290795162327,1207.4496116851033) translate(48.75868923611111 96.37152777777777)"/><path d="M1085.62 1208.45a6 6 0 0 1 6-6h148a6 6 0 0 1 6 6v108a6 6 0 0 1-6 6h-148a6 6 0 0 1-6-6z" stroke="#000" stroke-width="2" fill="#fff"/><use xlink:href="#o" transform="matrix(1,0,0,1,1097.6186710223499,1214.4496116851033) translate(3.9809027777777857 39.52777777777778)"/><use xlink:href="#p" transform="matrix(1,0,0,1,1097.6186710223499,1214.4496116851033) translate(28.753038194444443 71.79340277777777)"/><use xlink:href="#q" transform="matrix(1,0,0,1,1097.6186710223499,1214.4496116851033) translate(61.21831597222222 71.79340277777777)"/><path d="M1459.77 1208.45a6 6 0 0 1 6-6h148a6 6 0 0 1 6 6v108a6 6 0 0 1-6 6h-148a6 6 0 0 1-6-6z" stroke="#000" stroke-width="2" fill="#fff"/><use xlink:href="#r" transform="matrix(1,0,0,1,1471.7719796626325,1214.4496116851033) translate(4.914062500000007 39.52777777777778)"/><use xlink:href="#s" transform="matrix(1,0,0,1,1471.7719796626325,1214.4496116851033) translate(11.429904513888886 71.79340277777777)"/><path d="M397.22 739.95a6 6 0 0 1 6-6h110.5a6 6 0 0 1 6 6v71.15a6 6 0 0 1-6 6h-110.5a6 6 0 0 1-6-6z" stroke="#000" stroke-width="2" fill-opacity="0"/><use xlink:href="#t" transform="matrix(1,0,0,1,409.22400719530685,745.9509883648831) translate(-4.861979166666671 21.95095486111111)"/><use xlink:href="#u" transform="matrix(1,0,0,1,409.22400719530685,745.9509883648831) translate(4.371961805555557 54.21657986111111)"/><path d="M592.56 739.95a6 6 0 0 1 6-6H742a6 6 0 0 1 6 6v71.15a6 6 0 0 1-6 6H598.55a6 6 0 0 1-6-6z" stroke="#000" stroke-width="2" fill-opacity="0"/><use xlink:href="#t" transform="matrix(1,0,0,1,604.5601845905362,745.9509883648831) translate(11.638020833333329 25.27777777777778)"/><use xlink:href="#v" transform="matrix(1,0,0,1,604.5601845905362,745.9509883648831) translate(41.49370659722222 57.54340277777778)"/><path d="M575.18 775.53h-53.96" stroke="#3a414a" fill="none"/><path d="M589.94 775.53l-14.26 4.63v-9.27z" stroke="#3a414a" fill="#3a414a"/><path d="M521.23 776h-.5v-.95h.5z" stroke="#3a414a" stroke-width=".05" fill="#3a414a"/><path d="M830.2 401.13a6 6 0 0 1 6-6h198.16a6 6 0 0 1 6 6v68a6 6 0 0 1-6 6H836.2a6 6 0 0 1-6-6z" stroke="#000" stroke-width="2" fill="#fff"/><use xlink:href="#w" transform="matrix(1,0,0,1,842.2046407856794,407.12527580700527) translate(19.481987847222214 35.52777777777778)"/><use xlink:href="#x" transform="matrix(1,0,0,1,842.2046407856794,407.12527580700527) translate(54.96375868055555 35.52777777777778)"/><path d="M993.54 576.95c0 28.88-26.08 52.3-58.26 52.3s-58.26-23.42-58.26-52.3c0-28.88 26.08-52.3 58.26-52.3s58.26 23.42 58.26 52.3z" stroke="#000" stroke-width="2" fill="#fff"/><use xlink:href="#y" transform="matrix(1,0,0,1,882.0187068815239,529.654004765433) translate(17.25825520833333 39.34027777777778)"/><use xlink:href="#z" transform="matrix(1,0,0,1,882.0187068815239,529.654004765433) translate(13.57357638888889 71.60590277777777)"/><path d="M935.28 507.27v-30.64" stroke="#3a414a" fill="none"/><path d="M935.28 522.04l-4.63-14.27h9.27z" stroke="#3a414a" fill="#3a414a"/><path d="M935.75 476.64h-.95v-.5h.96z" stroke="#3a414a" stroke-width=".05" fill="#3a414a"/><path d="M810.18 492.9a6 6 0 0 1 6-6h77.8a6 6 0 0 1 6 6v24.9a6 6 0 0 1-6 6h-77.8a6 6 0 0 1-6-6z" fill="none"/><use xlink:href="#A" transform="matrix(1,0,0,1,815.1763250964208,491.8934047438011) translate(0 21.58376736111111)"/><use xlink:href="#B" transform="matrix(1,0,0,1,815.1763250964208,491.8934047438011) translate(27.940538194444443 21.58376736111111)"/><use xlink:href="#C" transform="matrix(1,0,0,1,815.1763250964208,491.8934047438011) translate(41.82942708333333 21.58376736111111)"/><path d="M804.84 615.76c0 6.63-26.86 12-60 12-33.13 0-60-5.37-60-12v-96c0-6.63 26.87-12 60-12 33.14 0 60 5.37 60 12z" stroke="#000" stroke-width="2" fill="#fff"/><path d="M804.84 519.76c0 6.63-26.86 12-60 12-33.13 0-60-5.37-60-12" stroke="#000" stroke-width="2" fill="none"/><use xlink:href="#D" transform="matrix(1,0,0,1,689.8429917630875,536.7603867342248) translate(17.462022569444443 34.96527777777778)"/><use xlink:href="#E" transform="matrix(1,0,0,1,689.8429917630875,536.7603867342248) translate(33.369140625 67.23090277777777)"/><path d="M859.63 576.95h-18.6a.1.1 0 0 1-.1-.1.1.1 0 0 0-.1-.12h-34.5" stroke="#3a414a" fill="none"/><path d="M874.4 576.95l-14.26 4.63v-9.27z" stroke="#3a414a" fill="#3a414a"/><path d="M806.36 577.2h-.52v-.95h.52z" stroke="#3a414a" stroke-width=".05" fill="#3a414a"/><path d="M1035.62 525.24a6 6 0 0 1 6-6h117.33a6 6 0 0 1 6 6v103.42a6 6 0 0 1-6 6h-117.33a6 6 0 0 1-6-6z" stroke="#000" stroke-width="2" fill="#fff"/><use xlink:href="#F" transform="matrix(1,0,0,1,1047.6229456794886,531.2395569830076) translate(18.440538194444443 24.40277777777778)"/><use xlink:href="#G" transform="matrix(1,0,0,1,1047.6229456794886,531.2395569830076) translate(13.568576388888893 56.66840277777778)"/><use xlink:href="#H" transform="matrix(1,0,0,1,1047.6229456794886,531.2395569830076) translate(13.177951388888893 88.93402777777777)"/><path d="M1010.93 576.95h23.2" stroke="#3a414a" fill="none"/><path d="M996.16 576.95l14.27-4.64v9.28z" stroke="#3a414a" fill="#3a414a"/><path d="M1034.62 577.42h-.5v-.95h.5z" stroke="#3a414a" stroke-width=".05" fill="#3a414a"/><path d="M1451.3 476.14a6 6 0 0 1 6-6h224.64a6 6 0 0 1 6 6v191.02a6 6 0 0 1-6 6H1457.3a6 6 0 0 1-6-6z" stroke="#000" stroke-width="2" fill="#fff"/><use xlink:href="#I" transform="matrix(1,0,0,1,1463.2962026356372,482.1425618780386) translate(106.5 100.27777777777777)"/><path d="M1165.62 1185.07v-17.62a6 6 0 0 1 6-6h239.8a6 6 0 0 0 6-6v-197.3" stroke="#3a414a" fill="none"/><path d="M1165.62 1199.83l-4.64-14.26h9.27z" stroke="#3a414a" fill="#3a414a"/><path d="M1417.9 958.17h-.96v-.5h.95z" stroke="#3a414a" stroke-width=".05" fill="#3a414a"/><path d="M1345.3 1185.07v-17.62a6 6 0 0 1 6-6h60.1a6 6 0 0 0 6-6v-197.3" stroke="#3a414a" fill="none"/><path d="M1345.3 1199.83l-4.64-14.26h9.27z" stroke="#3a414a" fill="#3a414a"/><path d="M1417.9 958.17h-.96v-.5h.95z" stroke="#3a414a" stroke-width=".05" fill="#3a414a"/><path d="M1539.77 1185.07v-17.62a6 6 0 0 0-6-6H1423.4a6 6 0 0 1-6-6v-197.3" stroke="#3a414a" fill="none"/><path d="M1539.77 1199.83l-4.63-14.26h9.27z" stroke="#3a414a" fill="#3a414a"/><path d="M1417.9 958.17h-.96v-.5h.95z" stroke="#3a414a" stroke-width=".05" fill="#3a414a"/><path d="M1870.12 618.15c0 6.82-29.3 12.34-65.42 12.34-36.12 0-65.4-5.53-65.4-12.35v-98.7c0-6.82 29.28-12.35 65.4-12.35 36.13 0 65.42 5.53 65.42 12.34z" stroke="#000" stroke-width="2" fill="#fff"/><path d="M1870.12 519.44c0 6.82-29.3 12.34-65.42 12.34-36.12 0-65.4-5.52-65.4-12.34" stroke="#000" stroke-width="2" fill="none"/><use xlink:href="#J" transform="matrix(1,0,0,1,1744.290698660075,536.7828823605939) translate(46.508029513888886 24.30902777777778)"/><use xlink:href="#K" transform="matrix(1,0,0,1,1744.290698660075,536.7828823605939) translate(3.01844618055555 56.57465277777778)"/><use xlink:href="#L" transform="matrix(1,0,0,1,1744.290698660075,536.7828823605939) translate(34.51129340277778 88.84027777777777)"/><path d="M1721.9 568.8h-32.46" stroke="#3a414a" fill="none"/><path d="M1736.67 568.8l-14.26 4.63v-9.27z" stroke="#3a414a" fill="#3a414a"/><path d="M1689.46 569.27h-.52v-.95h.52z" stroke="#3a414a" stroke-width=".05" fill="#3a414a"/><path d="M1473.48 622.24a6 6 0 0 1 6-6h183.03a6 6 0 0 1 6 6v34.72a6 6 0 0 1-6 6H1479.5a6 6 0 0 1-6-6z" fill="none"/><use xlink:href="#M" transform="matrix(1,0,0,1,1473.4763526622623,616.2408978702662) translate(12.800347222222229 31.58376736111111)"/><use xlink:href="#N" transform="matrix(1,0,0,1,1473.4763526622623,616.2408978702662) translate(64.9921875 31.58376736111111)"/><path d="M1433.9 571.65h-10.5a6 6 0 0 0-6 6v290.5" stroke="#3a414a" fill="none"/><path d="M1448.68 571.65l-14.27 4.64V567z" stroke="#3a414a" fill="#3a414a"/><path d="M1417.9 868.64h-.96v-.5h.95z" stroke="#3a414a" stroke-width=".05" fill="#3a414a"/><path d="M1460.52 561.67a6 6 0 0 1 6-6h207.7a6 6 0 0 1 6 6v30.56a6 6 0 0 1-6 6h-207.7a6 6 0 0 1-6-6z" stroke="#000" stroke-width="2" fill="#fff"/><use xlink:href="#O" transform="matrix(1,0,0,1,1472.522718632646,567.6731375381587) translate(33.281032986111114 21.52777777777778)"/><use xlink:href="#P" transform="matrix(1,0,0,1,1472.522718632646,567.6731375381587) translate(117.51497395833333 21.52777777777778)"/><path d="M1459.02 492.9a6 6 0 0 1 6-6h209.2a6 6 0 0 1 6 6v32.2a6 6 0 0 1-6 6h-209.2a6 6 0 0 1-6-6z" stroke="#000" stroke-width="2" fill="#fff"/><use xlink:href="#Q" transform="matrix(1,0,0,1,1471.021240692619,498.8934047438011) translate(2.4071180555555713 21.52777777777778)"/><use xlink:href="#R" transform="matrix(1,0,0,1,1471.021240692619,498.8934047438011) translate(77.25520833333336 21.52777777777778)"/><path d="M1659.84 1208.45a6 6 0 0 1 6-6h148a6 6 0 0 1 6 6v108a6 6 0 0 1-6 6h-148a6 6 0 0 1-6-6z" stroke="#e81313" stroke-width="2" fill="#fff"/><use xlink:href="#S" transform="matrix(1,0,0,1,1671.8392409989922,1214.4496116851033) translate(16.871527777777786 24.52777777777778)"/><use xlink:href="#T" transform="matrix(1,0,0,1,1671.8392409989922,1214.4496116851033) translate(4.82725694444445 56.79340277777778)"/><use xlink:href="#U" transform="matrix(1,0,0,1,1671.8392409989922,1214.4496116851033) translate(14.685112847222229 89.05902777777777)"/><use xlink:href="#V" transform="matrix(1,0,0,1,1671.8392409989922,1214.4496116851033) translate(60.14952256944444 89.05902777777777)"/><path d="M1642.45 1262.45h-21.18" stroke="#e81313" fill="none"/><path d="M1657.22 1262.45l-14.27 4.63v-9.27z" stroke="#e81313" fill="#e81313"/><path d="M1621.3 1262.92h-.53v-.95h.52z" stroke="#e81313" stroke-width=".05" fill="#e81313"/><path d="M1104.2 736.74a6 6 0 0 1 6-6h137.97a6 6 0 0 1 6 6v64.24a6 6 0 0 1-6 6H1110.2a6 6 0 0 1-6-6z" stroke="#000" stroke-width="2" fill="#fff"/><use xlink:href="#W" transform="matrix(1,0,0,1,1116.2089368236038,742.7382418690405) translate(31.13693576388889 21.52777777777778)"/><use xlink:href="#X" transform="matrix(1,0,0,1,1116.2089368236038,742.7382418690405) translate(31.82052951388889 53.79340277777778)"/><path d="M877.02 875.64a6 6 0 0 1 6-6h138.66a6 6 0 0 1 6 6v78.67a6 6 0 0 1-6 6H883.02a6 6 0 0 1-6-6z" stroke="#000" stroke-width="2" fill="#fff"/><g><use xlink:href="#Y" transform="matrix(1,0,0,1,889.0187068815239,881.6439616486862) translate(32.55381944444444 25.71527777777778)"/><use xlink:href="#Z" transform="matrix(1,0,0,1,889.0187068815239,881.6439616486862) translate(14.709852430555557 57.98090277777778)"/></g><path d="M1179.2 824.37v7.94a6 6 0 0 1-6 6H958.34a6 6 0 0 0-6 6v23.84" stroke="#3a414a" fill="none"/><path d="M1179.2 809.6l4.62 14.27h-9.27z" stroke="#3a414a" fill="#3a414a"/><path d="M952.83 868.64h-.95v-.5h.95z" stroke="#3a414a" stroke-width=".05" fill="#3a414a"/><path d="M1179.2 824.37v7.94a6 6 0 0 0 6 6h226.2a6 6 0 0 1 6 6v23.84" stroke="#3a414a" fill="none"/><path d="M1179.2 809.6l4.62 14.27h-9.27z" stroke="#3a414a" fill="#3a414a"/><path d="M1417.9 868.64h-.96v-.5h.95z" stroke="#3a414a" stroke-width=".05" fill="#3a414a"/><path d="M1068.23 1262.45H958.35a6 6 0 0 1-6-6V961.8" stroke="#3a414a" fill="none"/><path d="M1083 1262.45l-14.27 4.63v-9.27z" stroke="#3a414a" fill="#3a414a"/><path d="M952.83 961.82h-.95v-.5h.95z" stroke="#3a414a" stroke-width=".05" fill="#3a414a"/><path d="M1099.2 875.64a6 6 0 0 1 6-6h148a6 6 0 0 1 6 6v82.1a6 6 0 0 1-6 6h-148a6 6 0 0 1-6-6z" stroke="#000" stroke-width="2" fill="#fff"/><g><use xlink:href="#aa" transform="matrix(1,0,0,1,1111.1876677381006,881.6439616486862) translate(0.5900607638888857 28.18402777777778)"/><use xlink:href="#ab" transform="matrix(1,0,0,1,1111.1876677381006,881.6439616486862) translate(82.95768229166666 28.18402777777778)"/><use xlink:href="#ac" transform="matrix(1,0,0,1,1111.1876677381006,881.6439616486862) translate(26.577473958333343 60.44965277777778)"/></g><path d="M1179.2 824.37v43.77" stroke="#3a414a" fill="none"/><path d="M1179.2 809.6l4.62 14.27h-9.27z" stroke="#3a414a" fill="#3a414a"/><path d="M1179.66 868.64h-.95v-.5h.96z" stroke="#3a414a" stroke-width=".05" fill="#3a414a"/><path d="M1365.62 1118.7c0 6.1-26.86 11.06-60 11.06s-60-4.96-60-11.07v-88.54c0-6.12 26.86-11.07 60-11.07s60 4.94 60 11.06z" stroke="#000" stroke-width="2" fill="#fff"/><path d="M1365.62 1030.16c0 6.1-26.86 11.06-60 11.06s-60-4.95-60-11.06" stroke="#000" stroke-width="2" fill="none"/><g><use xlink:href="#ad" transform="matrix(1,0,0,1,1250.6186710223499,1046.2230887502278) translate(6.779513888888886 31.40277777777778)"/><use xlink:href="#ae" transform="matrix(1,0,0,1,1250.6186710223499,1046.2230887502278) translate(39.62456597222222 63.66840277777778)"/></g><path d="M1305.62 1001.7v-4.3a6 6 0 0 0-6-6H1185.2a6 6 0 0 1-6-6v-20.17" stroke="#3a414a" fill="none"/><path d="M1305.62 1016.47l-4.64-14.26h9.27z" stroke="#3a414a" fill="#3a414a"/><path d="M1179.66 965.24h-.95v-.5h.96z" stroke="#3a414a" stroke-width=".05" fill="#3a414a"/><path d="M1305.62 1001.7v-7.83a6 6 0 0 1 6-6h99.8a6 6 0 0 0 6-6v-23.72" stroke="#3a414a" fill="none"/><path d="M1305.62 1016.47l-4.64-14.26h9.27z" stroke="#3a414a" fill="#3a414a"/><path d="M1417.9 958.17h-.96v-.5h.95z" stroke="#3a414a" stroke-width=".05" fill="#3a414a"/><path d="M935.33 674.7v-14a.03.03 0 0 0-.03-.03.03.03 0 0 1-.02-.02v-29.9" stroke="#3a414a" fill="none"/><path d="M935.33 689.48l-4.64-14.27h9.26z" stroke="#3a414a" fill="#3a414a"/><path d="M935.27 630.25h.5v.5h-.97v-.52z" stroke="#3a414a" stroke-width=".05" fill="#3a414a"/><path d="M834.15 798.9h-45.62" stroke="#3a414a" fill="none"/><path d="M848.92 798.9l-14.27 4.63v-9.28z" stroke="#3a414a" fill="#3a414a"/><path d="M788.54 799.36h-.5v-.95h.5z" stroke="#3a414a" stroke-width=".05" fill="#3a414a"/><defs><path d="M567 20C257 20 68-148 68-448v-87h305v92c0 143 75 217 194 217s193-74 193-218v-1046h302v1041c0 301-188 469-495 469" id="af"/><path d="M440 22C227 22 68-92 68-313c0-250 202-322 422-343 195-21 271-24 271-105 0-95-63-149-175-149-116 0-187 57-211 129l-275-46c57-194 237-305 487-305 240 0 474 108 474 379V0H777v-155h-10C713-51 605 22 440 22zm85-211c140 0 238-93 238-211v-121c-37 26-156 42-222 51-111 16-185 59-185 149 0 87 70 132 169 132" id="ag"/><path d="M443 0L31-1118h319c90 293 199 572 268 885 66-313 175-593 264-885h315L784 0H443" id="ah"/><g id="a"><use transform="matrix(0.010850694444444444,0,0,0.010850694444444444,0,0)" xlink:href="#af"/><use transform="matrix(0.010850694444444444,0,0,0.010850694444444444,12.98828125,0)" xlink:href="#ag"/><use transform="matrix(0.010850694444444444,0,0,0.010850694444444444,25.50998263888889,0)" xlink:href="#ah"/><use transform="matrix(0.010850694444444444,0,0,0.010850694444444444,38.61762152777778,0)" xlink:href="#ag"/></g><path d="M681 22C323 22 94-145 85-462h297c10 151 131 226 296 226 163 0 271-77 271-190 0-102-95-149-257-189l-164-41c-252-61-403-188-403-405 0-269 236-449 560-449 330 0 546 183 551 445H941c-11-119-106-188-259-188-156 0-244 72-244 172-3 156 226 185 373 221 250 61 445 186 445 436 0 271-213 446-575 446" id="ai"/><path d="M128 418v-1536h295v188h14c41-89 129-202 319-202 248 0 453 193 453 575 0 372-197 576-455 576-183 0-275-108-317-198h-9v597H128zm534-640c156 0 240-139 240-336 0-196-83-334-240-334-154 0-241 131-241 334 0 202 88 336 241 336" id="aj"/><path d="M128 0v-1118h290v195h12c54-169 184-238 367-200v268c-27-8-86-15-130-15-138 0-239 95-239 234V0H128" id="ak"/><path d="M128 0v-1118h300V0H128zm150-1264c-91 0-165-68-165-154 0-85 74-154 165-154 90 0 165 69 165 154 0 86-75 154-165 154" id="al"/><path d="M428-647V0H128v-1118h283l4 231c63-156 176-245 348-245 232 0 384 159 384 421V0H847v-659c0-139-76-222-202-222-128 0-217 86-217 234" id="am"/><path d="M625 442c-280 0-454-114-503-274l258-72c28 63 97 128 243 128 153 0 246-69 246-216v-206h-23C805-108 717-16 536-16 284-16 81-191 81-561c0-378 208-571 456-571 188 0 280 113 321 202h13v-188h295V-9c0 303-226 451-541 451zm5-686c153 0 240-119 240-319 0-198-86-329-240-329-158 0-241 137-241 329 0 195 85 319 241 319" id="an"/><g id="b"><use transform="matrix(0.010850694444444444,0,0,0.010850694444444444,0,0)" xlink:href="#ai"/><use transform="matrix(0.010850694444444444,0,0,0.010850694444444444,14.55078125,0)" xlink:href="#aj"/><use transform="matrix(0.010850694444444444,0,0,0.010850694444444444,28.559027777777775,0)" xlink:href="#ak"/><use transform="matrix(0.010850694444444444,0,0,0.010850694444444444,37.771267361111114,0)" xlink:href="#al"/><use transform="matrix(0.010850694444444444,0,0,0.010850694444444444,43.79340277777778,0)" xlink:href="#am"/><use transform="matrix(0.010850694444444444,0,0,0.010850694444444444,57.62803819444444,0)" xlink:href="#an"/></g><path d="M135 0v-1490h591c327 0 492 160 492 383 0 177-115 286-268 320v15c168 8 326 140 326 361 0 236-176 411-512 411H135zm305-251h264c179 0 258-76 258-189 0-125-97-215-250-215H440v404zm0-613h241c131 0 228-74 228-194 0-109-79-183-222-183H440v377" id="ao"/><path d="M628 22C291 22 81-210 81-554c0-346 210-578 547-578 265 0 455 142 497 372l-279 52c-25-116-99-188-215-188-160 0-244 139-244 341 0 200 84 341 244 341 116 0 193-74 217-195l279 51C1085-123 896 22 628 22" id="ap"/><path d="M128 0v-1490h300v802h17l366-430h347L740-633 1179 0H826L514-456l-86 97V0H128" id="aq"/><path d="M633 22C291 22 81-200 81-553c0-345 210-579 537-579 292 0 525 185 525 567v84H378c7 183 109 277 260 277 105 0 184-46 216-132l272 51C1071-99 893 22 633 22zM380-669h474c-15-146-94-237-233-237-143 0-229 99-241 237" id="ar"/><path d="M537 19C279 19 81-185 81-557c0-382 206-575 454-575 190 0 278 113 318 202h10v-560h300V0H868v-179h-15C812-89 719 19 537 19zm92-241c153 0 240-134 240-336 0-203-86-334-240-334-158 0-240 138-240 334 0 197 84 336 240 336" id="as"/><g id="c"><use transform="matrix(0.010850694444444444,0,0,0.010850694444444444,0,0)" xlink:href="#ao"/><use transform="matrix(0.010850694444444444,0,0,0.010850694444444444,14.702690972222221,0)" xlink:href="#ag"/><use transform="matrix(0.010850694444444444,0,0,0.010850694444444444,27.604166666666664,0)" xlink:href="#ap"/><use transform="matrix(0.010850694444444444,0,0,0.010850694444444444,40.67925347222222,0)" xlink:href="#aq"/><use transform="matrix(0.010850694444444444,0,0,0.010850694444444444,53.07074652777778,0)" xlink:href="#ar"/><use transform="matrix(0.010850694444444444,0,0,0.010850694444444444,66.30859375,0)" xlink:href="#am"/><use transform="matrix(0.010850694444444444,0,0,0.010850694444444444,80.14322916666667,0)" xlink:href="#as"/></g><path d="M786 20C389 20 94-260 94-744c0-487 299-766 692-766 339 0 597 194 641 529h-309c-28-162-156-258-326-258-233 0-388 179-388 495 0 323 157 493 387 493 170 0 298-97 328-259h309c-34 277-266 530-642 530" id="at"/><path d="M428-1490V0H128v-1490h300" id="au"/><path d="M628 22C291 22 81-210 81-554c0-346 210-578 547-578 336 0 547 232 547 578 0 344-211 576-547 576zm0-236c160 0 242-146 242-341 0-197-82-341-242-341S387-753 387-555c0 195 81 341 241 341" id="av"/><path d="M513 14c-232 0-385-159-385-421v-711h300v659c0 139 76 222 202 222 127 0 217-86 217-234v-647h301V0H864l-4-232C797-74 683 14 513 14" id="aw"/><path d="M750-1118v229H516V0H217v-889H20v-229h197v-86c0-238 156-356 363-356 94 0 178 20 215 31l-54 226c-25-7-61-15-100-15-123-3-131 84-125 200h234" id="ax"/><g id="e"><use transform="matrix(0.010850694444444444,0,0,0.010850694444444444,0,0)" xlink:href="#at"/><use transform="matrix(0.010850694444444444,0,0,0.010850694444444444,16.438802083333332,0)" xlink:href="#au"/><use transform="matrix(0.010850694444444444,0,0,0.010850694444444444,22.4609375,0)" xlink:href="#av"/><use transform="matrix(0.010850694444444444,0,0,0.010850694444444444,36.08940972222222,0)" xlink:href="#aw"/><use transform="matrix(0.010850694444444444,0,0,0.010850694444444444,49.924045138888886,0)" xlink:href="#as"/><use transform="matrix(0.010850694444444444,0,0,0.010850694444444444,63.932291666666664,0)" xlink:href="#ax"/><use transform="matrix(0.010850694444444444,0,0,0.010850694444444444,72.77560763888889,0)" xlink:href="#au"/><use transform="matrix(0.010850694444444444,0,0,0.010850694444444444,78.79774305555556,0)" xlink:href="#ag"/><use transform="matrix(0.010850694444444444,0,0,0.010850694444444444,91.69921875,0)" xlink:href="#ak"/><use transform="matrix(0.010850694444444444,0,0,0.010850694444444444,100.20616319444444,0)" xlink:href="#ar"/></g><path d="M659 0H135v-1490h529c448 0 721 280 721 744 0 466-273 746-726 746zM440-263h204c287 0 437-148 437-483 0-333-150-481-435-481H440v964" id="ay"/><path d="M135 0v-1490h340l471 754c59 97 122 210 187 365-32-387-14-721-19-1119h312V0h-341C855-382 627-689 427-1113c32 420 16 695 20 1113H135" id="az"/><g id="f"><use transform="matrix(0.010850694444444444,0,0,0.010850694444444444,0,0)" xlink:href="#ay"/><use transform="matrix(0.010850694444444444,0,0,0.010850694444444444,16.048177083333332,0)" xlink:href="#az"/><use transform="matrix(0.010850694444444444,0,0,0.010850694444444444,32.986111111111114,0)" xlink:href="#ai"/></g><path d="M471 26C259 26 90-98 90-318c0-256 228-303 435-329 202-27 287-16 287-108 0-139-79-219-234-219-161 0-248 86-283 164l-173-57c86-203 278-265 451-265 150 0 419 46 419 395V0H815v-152h-12C765-73 660 26 471 26zm31-159c199 0 310-134 310-271v-155c-30 35-226 55-295 64-131 17-246 59-246 186 0 116 97 176 231 176" id="aA"/><path d="M577 24c-279 0-473-224-473-580 0-354 195-576 474-576 218 0 287 134 324 193h14v-551h180V0H922v-173h-20C865-111 790 24 577 24zm27-161c203 0 314-172 314-421 0-247-108-413-314-413-212 0-317 181-317 413 0 235 108 421 317 421" id="aB"/><path d="M158 0v-1118h180V0H158zm91-1301c-68 0-125-53-125-119s57-119 125-119c69 0 126 53 126 119s-57 119-126 119" id="aC"/><path d="M598-1118v154H368v674c0 100 37 144 132 144 23 0 62-6 92-12L629-6c-37 13-88 20-134 20-193 0-307-107-307-290v-688H20v-154h168v-266h180v266h230" id="aD"/><path d="M140 405l46-156c120 36 205 19 263-150l32-93L54-1118h197c107 313 237 620 324 950 87-331 219-637 326-950h196L606 167c-68 178-176 259-334 259-64 0-113-12-132-21" id="aE"/><path d="M677 24c-213 0-288-135-325-197h-20V0H158v-1490h180v551h14c37-59 106-193 324-193 279 0 474 222 474 576 0 356-194 580-473 580zm-27-161c209 0 317-186 317-421 0-232-105-413-317-413-206 0-314 166-314 413 0 249 111 421 314 421" id="aF"/><path d="M157-1118h181V80c1 225-123 350-364 338V252c126 9 184-48 183-172v-1198zm91-183c-68 0-125-53-125-119s57-119 125-119c69 0 126 53 126 119s-57 119-126 119" id="aG"/><path d="M158 418v-1536h174v179h20c37-59 106-193 324-193 279 0 474 222 474 576 0 356-194 580-473 580-213 0-288-135-325-197h-14v591H158zm492-555c209 0 317-186 317-421 0-232-105-413-317-413-206 0-314 166-314 413 0 249 111 421 314 421" id="aH"/><path d="M537 14c-226 0-379-139-379-422v-710h180v695c0 172 97 275 253 275 160 0 281-109 281-300v-670h181V0H879v-209C806-46 684 14 537 14" id="aI"/><path d="M158 0v-1118h174v172h12c41-113 157-188 290-188 26 0 70 2 91 3v181c-11-2-60-10-108-10-161 0-279 109-279 260V0H158" id="aJ"/><path d="M158 0v-1490h180v865h22l478-493h223L593-638 1096 0H865L456-523 338-412V0H158" id="aK"/><path d="M295 13c-75 0-135-60-135-135s60-135 135-135 135 60 135 135S370 13 295 13" id="aL"/><path d="M338-670V0H158v-1118h173l1 207c72-158 192-221 342-221 226 0 378 139 378 422V0H872v-695c0-172-96-275-252-275-161 0-282 109-282 300" id="aM"/><g id="g"><use transform="matrix(0.010850694444444444,0,0,0.010850694444444444,0,0)" xlink:href="#aA"/><use transform="matrix(0.010850694444444444,0,0,0.010850694444444444,12.47829861111111,0)" xlink:href="#aB"/><use transform="matrix(0.010850694444444444,0,0,0.010850694444444444,26.085069444444443,0)" xlink:href="#aC"/><use transform="matrix(0.010850694444444444,0,0,0.010850694444444444,31.46701388888889,0)" xlink:href="#aD"/><use transform="matrix(0.010850694444444444,0,0,0.010850694444444444,39.17100694444444,0)" xlink:href="#aE"/><use transform="matrix(0.010850694444444444,0,0,0.010850694444444444,51.55164930555556,0)" xlink:href="#aA"/><use transform="matrix(0.010850694444444444,0,0,0.010850694444444444,64.02994791666667,0)" xlink:href="#aF"/><use transform="matrix(0.010850694444444444,0,0,0.010850694444444444,77.63671875,0)" xlink:href="#aC"/><use transform="matrix(0.010850694444444444,0,0,0.010850694444444444,83.01866319444444,0)" xlink:href="#aG"/><use transform="matrix(0.010850694444444444,0,0,0.010850694444444444,88.40060763888889,0)" xlink:href="#aA"/><use transform="matrix(0.010850694444444444,0,0,0.010850694444444444,100.87890625,0)" xlink:href="#aH"/><use transform="matrix(0.010850694444444444,0,0,0.010850694444444444,114.48567708333333,0)" xlink:href="#aI"/><use transform="matrix(0.010850694444444444,0,0,0.010850694444444444,127.62586805555556,0)" xlink:href="#aJ"/><use transform="matrix(0.010850694444444444,0,0,0.010850694444444444,136.33897569444443,0)" xlink:href="#aK"/><use transform="matrix(0.010850694444444444,0,0,0.010850694444444444,148.53515624999997,0)" xlink:href="#aA"/><use transform="matrix(0.010850694444444444,0,0,0.010850694444444444,161.0134548611111,0)" xlink:href="#aJ"/><use transform="matrix(0.010850694444444444,0,0,0.010850694444444444,167.99045138888886,0)" xlink:href="#aL"/><use transform="matrix(0.010850694444444444,0,0,0.010850694444444444,174.3923611111111,0)" xlink:href="#aC"/><use transform="matrix(0.010850694444444444,0,0,0.010850694444444444,179.77430555555554,0)" xlink:href="#aM"/></g><path d="M789 20C394 20 94-260 94-744c0-487 300-766 695-766s695 279 695 766c0 485-300 764-695 764zm0-271c231 0 385-174 385-493 0-321-154-495-385-495s-385 175-385 495c0 319 154 493 385 493" id="aN"/><path d="M440-1490V0H135v-1490h305" id="aO"/><g id="h"><use transform="matrix(0.010850694444444444,0,0,0.010850694444444444,0,0)" xlink:href="#aN"/><use transform="matrix(0.010850694444444444,0,0,0.010850694444444444,17.122395833333332,0)" xlink:href="#at"/><use transform="matrix(0.010850694444444444,0,0,0.010850694444444444,33.561197916666664,0)" xlink:href="#aO"/></g><path d="M568-82v-393H183v-240h385v-393h254v393h386v240H822v393H568" id="aP"/><use transform="matrix(0.010850694444444444,0,0,0.010850694444444444,0,0)" xlink:href="#aP" id="i"/><g id="j"><use transform="matrix(0.010850694444444444,0,0,0.010850694444444444,0,0)" xlink:href="#ay"/><use transform="matrix(0.010850694444444444,0,0,0.010850694444444444,16.048177083333332,0)" xlink:href="#av"/><use transform="matrix(0.010850694444444444,0,0,0.010850694444444444,29.676649305555554,0)" xlink:href="#ap"/><use transform="matrix(0.010850694444444444,0,0,0.010850694444444444,42.75173611111111,0)" xlink:href="#aq"/><use transform="matrix(0.010850694444444444,0,0,0.010850694444444444,55.143229166666664,0)" xlink:href="#ar"/><use transform="matrix(0.010850694444444444,0,0,0.010850694444444444,68.38107638888889,0)" xlink:href="#ak"/></g><path d="M128 0v-1118h278l12 217c60-163 185-234 319-234 143 0 236 81 288 251 63-172 205-251 359-251 205 0 357 138 357 381V0h-301v-697c0-126-76-187-177-187-114 0-184 79-184 196V0H789v-705c0-109-72-179-174-179-106 0-187 74-187 208V0H128" id="aQ"/><path d="M572 22C302 22 117-98 78-306l279-48c29 105 101 156 224 156 114 0 185-48 185-115 0-118-228-130-337-155-215-49-322-150-322-317 0-215 187-347 470-347 265 0 424 116 466 298l-266 47c-24-76-87-130-196-130-98 0-174 46-174 113 0 56 38 95 144 117l201 40c216 44 320 143 320 302 0 220-207 367-500 367" id="aR"/><g id="k"><use transform="matrix(0.010850694444444444,0,0,0.010850694444444444,0,0)" xlink:href="#at"/><use transform="matrix(0.010850694444444444,0,0,0.010850694444444444,16.438802083333332,0)" xlink:href="#av"/><use transform="matrix(0.010850694444444444,0,0,0.010850694444444444,30.067274305555554,0)" xlink:href="#aQ"/><use transform="matrix(0.010850694444444444,0,0,0.010850694444444444,50.34722222222221,0)" xlink:href="#aj"/><use transform="matrix(0.010850694444444444,0,0,0.010850694444444444,64.35546874999999,0)" xlink:href="#av"/><use transform="matrix(0.010850694444444444,0,0,0.010850694444444444,77.9839409722222,0)" xlink:href="#aR"/><use transform="matrix(0.010850694444444444,0,0,0.010850694444444444,90.42968749999997,0)" xlink:href="#ar"/></g><path d="M130 0v-134l666-991c45-67 96-135 147-202-269 9-546 3-821 5v-168h1036v136L502-379c-49 72-103 145-157 216 268-9 546-3 821-5V0H130" id="aS"/><path d="M613 24c-304 0-509-231-509-576 0-350 205-580 509-580 305 0 511 230 511 580 0 345-206 576-511 576zm0-161c226 0 329-195 329-415 0-222-103-419-329-419-223 0-326 196-326 419 0 220 103 415 326 415" id="aT"/><path d="M158 0v-1118h175l1 205c55-151 181-225 313-225 147 0 245 90 285 228 53-141 190-228 352-228 194 0 352 125 352 384V0h-181v-749c0-161-105-225-225-225-151 0-243 103-243 244V0H807v-767c0-124-93-207-219-207-131 0-250 92-250 270V0H158" id="aU"/><g id="l"><use transform="matrix(0.010850694444444444,0,0,0.010850694444444444,0,0)" xlink:href="#aS"/><use transform="matrix(0.010850694444444444,0,0,0.010850694444444444,13.975694444444445,0)" xlink:href="#aT"/><use transform="matrix(0.010850694444444444,0,0,0.010850694444444444,27.30034722222222,0)" xlink:href="#aT"/><use transform="matrix(0.010850694444444444,0,0,0.010850694444444444,40.625,0)" xlink:href="#aU"/></g><path d="M628 24c-324 0-524-230-524-574 0-343 198-582 503-582 237 0 487 146 487 559v75H286c9 234 145 362 343 362 132 0 231-58 273-172l174 48C1024-91 857 24 628 24zM287-650h624c-17-190-120-322-304-322-192 0-309 151-320 322" id="aV"/><path d="M611 442c-248 0-391-105-460-228l146-94c47 65 117 165 314 165 178 0 307-82 307-266v-224h-17C863-141 792-18 576-18c-268 0-472-195-472-546 0-346 197-568 476-568 216 0 288 133 326 193h17v-179h175V29c0 289-215 413-487 413zm-5-620c203 0 314-146 314-390 0-237-108-403-314-403-213 0-319 180-319 403 0 230 109 390 319 390" id="aW"/><path d="M538 24C308 24 148-78 108-271l171-41c32 123 123 178 257 178 156 0 256-77 256-169 0-77-54-128-164-154l-186-44c-203-48-300-148-300-305 0-192 176-326 414-326 230 0 351 112 402 269l-163 42c-31-80-94-158-238-158-133 0-233 69-233 162 0 83 57 129 188 160l169 40c203 48 298 149 298 302 0 196-179 339-441 339" id="aX"/><g id="m"><use transform="matrix(0.010850694444444444,0,0,0.010850694444444444,0,0)" xlink:href="#aU"/><use transform="matrix(0.010850694444444444,0,0,0.010850694444444444,19.466145833333332,0)" xlink:href="#aV"/><use transform="matrix(0.010850694444444444,0,0,0.010850694444444444,32.421875,0)" xlink:href="#aV"/><use transform="matrix(0.010850694444444444,0,0,0.010850694444444444,45.377604166666664,0)" xlink:href="#aD"/><use transform="matrix(0.010850694444444444,0,0,0.010850694444444444,52.64756944444444,0)" xlink:href="#aC"/><use transform="matrix(0.010850694444444444,0,0,0.010850694444444444,58.029513888888886,0)" xlink:href="#aM"/><use transform="matrix(0.010850694444444444,0,0,0.010850694444444444,71.15885416666666,0)" xlink:href="#aW"/><use transform="matrix(0.010850694444444444,0,0,0.010850694444444444,84.78732638888889,0)" xlink:href="#aX"/></g><path d="M52 0l541-1490h220L1361 0h-200l-149-416H398L254 0H52zm404-582h497c-103-290-145-390-251-756-108 377-145 460-246 756" id="aY"/><path d="M180 0v-1490h510c348 0 508 209 508 474 0 266-160 477-507 477H370V0H180zm190-706h312c236 0 327-133 327-310 0-176-91-307-329-307H370v617" id="aZ"/><path d="M370-1490V0H180v-1490h190" id="ba"/><g id="n"><use transform="matrix(0.010850694444444444,0,0,0.010850694444444444,0,0)" xlink:href="#aY"/><use transform="matrix(0.010850694444444444,0,0,0.010850694444444444,15.33203125,0)" xlink:href="#aZ"/><use transform="matrix(0.010850694444444444,0,0,0.010850694444444444,29.524739583333332,0)" xlink:href="#ba"/></g><path d="M783 20c-382 0-661-292-661-764 0-473 279-766 661-766 302 0 548 182 601 489h-190c-42-204-217-313-411-313-268 0-476 208-476 590 0 381 209 588 476 588 195 0 369-110 411-313h190c-52 303-296 489-601 489" id="bb"/><path d="M98-1322v-168h1126v168H757V0H567v-1322H98" id="bc"/><path d="M180 0v-1490h190v644h782v-644h190V0h-190v-678H370V0H180" id="bd"/><g id="o"><use transform="matrix(0.010850694444444444,0,0,0.010850694444444444,0,0)" xlink:href="#aJ"/><use transform="matrix(0.010850694444444444,0,0,0.010850694444444444,7.996961805555555,0)" xlink:href="#aV"/><use transform="matrix(0.010850694444444444,0,0,0.010850694444444444,20.95269097222222,0)" xlink:href="#bb"/><use transform="matrix(0.010850694444444444,0,0,0.010850694444444444,36.75130208333333,0)" xlink:href="#aY"/><use transform="matrix(0.010850694444444444,0,0,0.010850694444444444,52.08333333333333,0)" xlink:href="#aZ"/><use transform="matrix(0.010850694444444444,0,0,0.010850694444444444,66.27604166666666,0)" xlink:href="#bc"/><use transform="matrix(0.010850694444444444,0,0,0.010850694444444444,79.9587673611111,0)" xlink:href="#bb"/><use transform="matrix(0.010850694444444444,0,0,0.010850694444444444,96.19140624999997,0)" xlink:href="#bd"/><use transform="matrix(0.010850694444444444,0,0,0.010850694444444444,112.70616319444441,0)" xlink:href="#aY"/></g><path d="M481 0L54-1118h197c107 314 236 620 325 951 87-331 217-637 324-951h197L670 0H481" id="be"/><path d="M635 20c-292 0-500-160-510-396h192c11 142 145 229 315 229 187 0 323-105 323-260 0-161-125-274-346-274H488v-165h121c174 0 294-100 294-254 0-148-104-245-266-245-152 0-291 85-297 230H157c8-234 222-395 484-395 278 0 448 188 448 400 0 168-95 291-247 336v12c190 31 301 169 301 357 0 244-216 425-508 425" id="bf"/><g id="p"><use transform="matrix(0.010850694444444444,0,0,0.010850694444444444,0,0)" xlink:href="#be"/><use transform="matrix(0.010850694444444444,0,0,0.010850694444444444,12.489149305555555,0)" xlink:href="#bf"/></g><path d="M338-670V0H158v-1490h180v566c73-149 190-208 336-208 226 0 379 139 379 422V0H872v-695c0-172-96-275-252-275-161 0-282 109-282 300" id="bg"/><g id="q"><use transform="matrix(0.010850694444444444,0,0,0.010850694444444444,0,0)" xlink:href="#aA"/><use transform="matrix(0.010850694444444444,0,0,0.010850694444444444,12.47829861111111,0)" xlink:href="#aI"/><use transform="matrix(0.010850694444444444,0,0,0.010850694444444444,25.618489583333332,0)" xlink:href="#aD"/><use transform="matrix(0.010850694444444444,0,0,0.010850694444444444,32.88845486111111,0)" xlink:href="#bg"/></g><g id="r"><use transform="matrix(0.010850694444444444,0,0,0.010850694444444444,0,0)" xlink:href="#aZ"/><use transform="matrix(0.010850694444444444,0,0,0.010850694444444444,14.192708333333332,0)" xlink:href="#aJ"/><use transform="matrix(0.010850694444444444,0,0,0.010850694444444444,22.189670138888886,0)" xlink:href="#aT"/><use transform="matrix(0.010850694444444444,0,0,0.010850694444444444,35.514322916666664,0)" xlink:href="#aU"/><use transform="matrix(0.010850694444444444,0,0,0.010850694444444444,54.98046875,0)" xlink:href="#aV"/><use transform="matrix(0.010850694444444444,0,0,0.010850694444444444,67.93619791666667,0)" xlink:href="#aD"/><use transform="matrix(0.010850694444444444,0,0,0.010850694444444444,75.20616319444444,0)" xlink:href="#bg"/><use transform="matrix(0.010850694444444444,0,0,0.010850694444444444,88.34635416666666,0)" xlink:href="#aV"/><use transform="matrix(0.010850694444444444,0,0,0.010850694444444444,101.30208333333333,0)" xlink:href="#aI"/><use transform="matrix(0.010850694444444444,0,0,0.010850694444444444,114.44227430555556,0)" xlink:href="#aX"/></g><path d="M180 0v-1490h270l367 940c28 72 75 218 110 339 35-117 81-264 110-339l362-940h271V0h-187c2-448-5-837 7-1287-157 497-311 829-483 1287H842C666-458 514-784 354-1284c12 438 5 843 7 1284H180" id="bh"/><g id="s"><use transform="matrix(0.010850694444444444,0,0,0.010850694444444444,0,0)" xlink:href="#bh"/><use transform="matrix(0.010850694444444444,0,0,0.010850694444444444,20.07378472222222,0)" xlink:href="#aT"/><use transform="matrix(0.010850694444444444,0,0,0.010850694444444444,33.3984375,0)" xlink:href="#aM"/><use transform="matrix(0.010850694444444444,0,0,0.010850694444444444,46.52777777777778,0)" xlink:href="#aC"/><use transform="matrix(0.010850694444444444,0,0,0.010850694444444444,51.90972222222222,0)" xlink:href="#aD"/><use transform="matrix(0.010850694444444444,0,0,0.010850694444444444,58.96267361111112,0)" xlink:href="#aT"/><use transform="matrix(0.010850694444444444,0,0,0.010850694444444444,72.28732638888889,0)" xlink:href="#aJ"/><use transform="matrix(0.010850694444444444,0,0,0.010850694444444444,81.00043402777779,0)" xlink:href="#aC"/><use transform="matrix(0.010850694444444444,0,0,0.010850694444444444,86.38237847222223,0)" xlink:href="#aM"/><use transform="matrix(0.010850694444444444,0,0,0.010850694444444444,99.51171875,0)" xlink:href="#aW"/></g><path d="M338-1490V0H158v-1490h180" id="bi"/><path d="M678-1118v154H420V0H240v-964H20v-154h220v-149c0-194 155-293 318-293 85 0 141 18 168 30l-50 154c-19-6-47-17-97-17-111 0-159 58-159 166v109h258" id="bj"/><g id="t"><use transform="matrix(0.010850694444444444,0,0,0.010850694444444444,0,0)" xlink:href="#bb"/><use transform="matrix(0.010850694444444444,0,0,0.010850694444444444,16.23263888888889,0)" xlink:href="#bi"/><use transform="matrix(0.010850694444444444,0,0,0.010850694444444444,21.614583333333336,0)" xlink:href="#aT"/><use transform="matrix(0.010850694444444444,0,0,0.010850694444444444,34.939236111111114,0)" xlink:href="#aI"/><use transform="matrix(0.010850694444444444,0,0,0.010850694444444444,48.07942708333333,0)" xlink:href="#aB"/><use transform="matrix(0.010850694444444444,0,0,0.010850694444444444,61.68619791666667,0)" xlink:href="#bj"/><use transform="matrix(0.010850694444444444,0,0,0.010850694444444444,69.91102430555556,0)" xlink:href="#bi"/><use transform="matrix(0.010850694444444444,0,0,0.010850694444444444,75.29296875,0)" xlink:href="#aA"/><use transform="matrix(0.010850694444444444,0,0,0.010850694444444444,87.77126736111111,0)" xlink:href="#aJ"/><use transform="matrix(0.010850694444444444,0,0,0.010850694444444444,95.76822916666666,0)" xlink:href="#aV"/></g><path d="M657 26c-323 0-524-166-541-416h195c15 169 171 246 346 246 202 0 356-106 356-265 5-203-294-238-475-293-239-73-380-191-380-389 0-252 224-419 512-419 294 0 499 171 508 396H992c-17-145-151-228-328-228-193 0-321 102-321 242 0 156 175 211 284 241l149 41c160 44 422 134 422 412 0 244-197 432-541 432" id="bk"/><path d="M180 0v-1490h190v1322h690V0H180" id="bl"/><path d="M692-1560L212 224H46l480-1784h166" id="bm"/><g id="u"><use transform="matrix(0.010850694444444444,0,0,0.010850694444444444,0,0)" xlink:href="#bk"/><use transform="matrix(0.010850694444444444,0,0,0.010850694444444444,14.2578125,0)" xlink:href="#bk"/><use transform="matrix(0.010850694444444444,0,0,0.010850694444444444,28.515625,0)" xlink:href="#bl"/><use transform="matrix(0.010850694444444444,0,0,0.010850694444444444,41.080729166666664,0)" xlink:href="#bm"/><use transform="matrix(0.010850694444444444,0,0,0.010850694444444444,49.088541666666664,0)" xlink:href="#bc"/><use transform="matrix(0.010850694444444444,0,0,0.010850694444444444,63.43315972222222,0)" xlink:href="#bl"/><use transform="matrix(0.010850694444444444,0,0,0.010850694444444444,75.99826388888889,0)" xlink:href="#bk"/></g><path d="M645 0H180v-1490h484c435 0 692 280 692 742 0 466-257 748-711 748zM370-168h263c363 0 539-218 539-580 0-358-176-574-521-574H370v1154" id="bn"/><path d="M180 0v-1490h224l606 953c40 63 108 177 176 312-27-437-7-821-13-1265h190V0h-226C860-448 622-778 356-1262c27 476 11 792 15 1262H180" id="bo"/><g id="v"><use transform="matrix(0.010850694444444444,0,0,0.010850694444444444,0,0)" xlink:href="#bb"/><use transform="matrix(0.010850694444444444,0,0,0.010850694444444444,16.23263888888889,0)" xlink:href="#bn"/><use transform="matrix(0.010850694444444444,0,0,0.010850694444444444,32.26996527777778,0)" xlink:href="#bo"/></g><path d="M789 20c-398 0-667-293-667-764 0-473 273-766 655-766 315 0 558 198 612 487h-196c-61-191-204-311-415-311-262 0-471 207-471 590 0 380 208 588 482 588 249 0 420-165 425-427H828v-166h572v163c0 370-256 606-611 606" id="bp"/><g id="w"><use transform="matrix(0.010850694444444444,0,0,0.010850694444444444,0,0)" xlink:href="#bp"/><use transform="matrix(0.010850694444444444,0,0,0.010850694444444444,16.57986111111111,0)" xlink:href="#aC"/><use transform="matrix(0.010850694444444444,0,0,0.010850694444444444,21.961805555555557,0)" xlink:href="#aD"/></g><path d="M180 0v-1490h510c348 0 508 194 508 460 0 198-88 351-276 417L1256 0h-220L726-579c-117 2-238 0-356 1V0H180zm190-747h312c235 0 327-108 327-283 0-177-92-293-329-293H370v576" id="bq"/><g id="x"><use transform="matrix(0.010850694444444444,0,0,0.010850694444444444,0,0)" xlink:href="#bq"/><use transform="matrix(0.010850694444444444,0,0,0.010850694444444444,13.975694444444445,0)" xlink:href="#aV"/><use transform="matrix(0.010850694444444444,0,0,0.010850694444444444,26.931423611111104,0)" xlink:href="#aH"/><use transform="matrix(0.010850694444444444,0,0,0.010850694444444444,40.53819444444444,0)" xlink:href="#aT"/><use transform="matrix(0.010850694444444444,0,0,0.010850694444444444,53.86284722222222,0)" xlink:href="#aX"/><use transform="matrix(0.010850694444444444,0,0,0.010850694444444444,65.59244791666667,0)" xlink:href="#aC"/><use transform="matrix(0.010850694444444444,0,0,0.010850694444444444,70.97439236111111,0)" xlink:href="#aD"/><use transform="matrix(0.010850694444444444,0,0,0.010850694444444444,78.02734375,0)" xlink:href="#aT"/><use transform="matrix(0.010850694444444444,0,0,0.010850694444444444,91.35199652777777,0)" xlink:href="#aJ"/><use transform="matrix(0.010850694444444444,0,0,0.010850694444444444,100.06510416666666,0)" xlink:href="#aE"/></g><g id="y"><use transform="matrix(0.010850694444444444,0,0,0.010850694444444444,0,0)" xlink:href="#bp"/><use transform="matrix(0.010850694444444444,0,0,0.010850694444444444,16.57986111111111,0)" xlink:href="#aC"/><use transform="matrix(0.010850694444444444,0,0,0.010850694444444444,21.961805555555557,0)" xlink:href="#aD"/><use transform="matrix(0.010850694444444444,0,0,0.010850694444444444,29.231770833333336,0)" xlink:href="#bd"/><use transform="matrix(0.010850694444444444,0,0,0.010850694444444444,45.74652777777778,0)" xlink:href="#aI"/><use transform="matrix(0.010850694444444444,0,0,0.010850694444444444,58.88671875,0)" xlink:href="#aF"/></g><path d="M613 24c-304 0-509-231-509-576 0-350 205-580 509-580 216 0 392 114 453 309l-173 49c-33-115-133-197-280-197-223 0-326 196-326 419 0 220 103 415 326 415 150 0 252-85 285-206l172 49C1010-95 832 24 613 24" id="br"/><g id="z"><use transform="matrix(0.010850694444444444,0,0,0.010850694444444444,0,0)" xlink:href="#aY"/><use transform="matrix(0.010850694444444444,0,0,0.010850694444444444,15.33203125,0)" xlink:href="#br"/><use transform="matrix(0.010850694444444444,0,0,0.010850694444444444,28.02734375,0)" xlink:href="#aD"/><use transform="matrix(0.010850694444444444,0,0,0.010850694444444444,35.29730902777778,0)" xlink:href="#aC"/><use transform="matrix(0.010850694444444444,0,0,0.010850694444444444,40.67925347222222,0)" xlink:href="#aT"/><use transform="matrix(0.010850694444444444,0,0,0.010850694444444444,54.00390625,0)" xlink:href="#aM"/><use transform="matrix(0.010850694444444444,0,0,0.010850694444444444,67.13324652777777,0)" xlink:href="#aX"/></g><g id="A"><use transform="matrix(0.010850694444444444,0,0,0.010850694444444444,0,0)" xlink:href="#at"/><use transform="matrix(0.010850694444444444,0,0,0.010850694444444444,16.438802083333332,0)" xlink:href="#aO"/></g><path d="M768-1560L288 224H28l480-1784h260" id="bs"/><use transform="matrix(0.010850694444444444,0,0,0.010850694444444444,0,0)" xlink:href="#bs" id="B"/><g id="C"><use transform="matrix(0.010850694444444444,0,0,0.010850694444444444,0,0)" xlink:href="#at"/><use transform="matrix(0.010850694444444444,0,0,0.010850694444444444,16.438802083333332,0)" xlink:href="#ay"/></g><g id="D"><use transform="matrix(0.010850694444444444,0,0,0.010850694444444444,0,0)" xlink:href="#bn"/><use transform="matrix(0.010850694444444444,0,0,0.010850694444444444,16.03732638888889,0)" xlink:href="#aT"/><use transform="matrix(0.010850694444444444,0,0,0.010850694444444444,29.361979166666664,0)" xlink:href="#br"/><use transform="matrix(0.010850694444444444,0,0,0.010850694444444444,42.057291666666664,0)" xlink:href="#aK"/><use transform="matrix(0.010850694444444444,0,0,0.010850694444444444,53.75434027777778,0)" xlink:href="#aV"/><use transform="matrix(0.010850694444444444,0,0,0.010850694444444444,66.71006944444444,0)" xlink:href="#aJ"/></g><g id="E"><use transform="matrix(0.010850694444444444,0,0,0.010850694444444444,0,0)" xlink:href="#bd"/><use transform="matrix(0.010850694444444444,0,0,0.010850694444444444,16.514756944444443,0)" xlink:href="#aI"/><use transform="matrix(0.010850694444444444,0,0,0.010850694444444444,29.654947916666664,0)" xlink:href="#aF"/></g><g id="F"><use transform="matrix(0.010850694444444444,0,0,0.010850694444444444,0,0)" xlink:href="#bp"/><use transform="matrix(0.010850694444444444,0,0,0.010850694444444444,16.57986111111111,0)" xlink:href="#aC"/><use transform="matrix(0.010850694444444444,0,0,0.010850694444444444,21.961805555555557,0)" xlink:href="#aD"/><use transform="matrix(0.010850694444444444,0,0,0.010850694444444444,29.231770833333336,0)" xlink:href="#bg"/><use transform="matrix(0.010850694444444444,0,0,0.010850694444444444,42.37196180555556,0)" xlink:href="#aI"/><use transform="matrix(0.010850694444444444,0,0,0.010850694444444444,55.51215277777778,0)" xlink:href="#aF"/></g><g id="G"><use transform="matrix(0.010850694444444444,0,0,0.010850694444444444,0,0)" xlink:href="#aY"/><use transform="matrix(0.010850694444444444,0,0,0.010850694444444444,15.33203125,0)" xlink:href="#br"/><use transform="matrix(0.010850694444444444,0,0,0.010850694444444444,28.02734375,0)" xlink:href="#aD"/><use transform="matrix(0.010850694444444444,0,0,0.010850694444444444,35.29730902777778,0)" xlink:href="#aC"/><use transform="matrix(0.010850694444444444,0,0,0.010850694444444444,40.67925347222222,0)" xlink:href="#aT"/><use transform="matrix(0.010850694444444444,0,0,0.010850694444444444,54.00390625,0)" xlink:href="#aM"/><use transform="matrix(0.010850694444444444,0,0,0.010850694444444444,67.13324652777777,0)" xlink:href="#aX"/></g><g id="H"><use transform="matrix(0.010850694444444444,0,0,0.010850694444444444,0,0)" xlink:href="#bk"/><use transform="matrix(0.010850694444444444,0,0,0.010850694444444444,14.2578125,0)" xlink:href="#aV"/><use transform="matrix(0.010850694444444444,0,0,0.010850694444444444,27.213541666666664,0)" xlink:href="#br"/><use transform="matrix(0.010850694444444444,0,0,0.010850694444444444,39.908854166666664,0)" xlink:href="#aJ"/><use transform="matrix(0.010850694444444444,0,0,0.010850694444444444,47.90581597222221,0)" xlink:href="#aV"/><use transform="matrix(0.010850694444444444,0,0,0.010850694444444444,60.86154513888888,0)" xlink:href="#aD"/><use transform="matrix(0.010850694444444444,0,0,0.010850694444444444,67.91449652777777,0)" xlink:href="#aX"/></g><g id="J"><use transform="matrix(0.010850694444444444,0,0,0.010850694444444444,0,0)" xlink:href="#bk"/><use transform="matrix(0.010850694444444444,0,0,0.010850694444444444,14.2578125,0)" xlink:href="#bf"/></g><path d="M409 0L70-1118h191c89 329 165 560 243 925 75-353 154-601 240-925h192c85 325 161 564 235 922 77-354 157-598 244-922h191L1267 0h-179c-86-307-176-590-250-913C763-588 675-308 588 0H409" id="bt"/><g id="K"><use transform="matrix(0.010850694444444444,0,0,0.010850694444444444,0,0)" xlink:href="#aK"/><use transform="matrix(0.010850694444444444,0,0,0.010850694444444444,12.196180555555555,0)" xlink:href="#aM"/><use transform="matrix(0.010850694444444444,0,0,0.010850694444444444,25.325520833333332,0)" xlink:href="#aT"/><use transform="matrix(0.010850694444444444,0,0,0.010850694444444444,38.248697916666664,0)" xlink:href="#bt"/><use transform="matrix(0.010850694444444444,0,0,0.010850694444444444,56.43446180555555,0)" xlink:href="#bi"/><use transform="matrix(0.010850694444444444,0,0,0.010850694444444444,61.81640625,0)" xlink:href="#aV"/><use transform="matrix(0.010850694444444444,0,0,0.010850694444444444,74.77213541666667,0)" xlink:href="#aB"/><use transform="matrix(0.010850694444444444,0,0,0.010850694444444444,88.37890625,0)" xlink:href="#aW"/><use transform="matrix(0.010850694444444444,0,0,0.010850694444444444,102.00737847222224,0)" xlink:href="#aV"/></g><g id="L"><use transform="matrix(0.010850694444444444,0,0,0.010850694444444444,0,0)" xlink:href="#aF"/><use transform="matrix(0.010850694444444444,0,0,0.010850694444444444,13.823784722222221,0)" xlink:href="#aA"/><use transform="matrix(0.010850694444444444,0,0,0.010850694444444444,26.302083333333332,0)" xlink:href="#aX"/><use transform="matrix(0.010850694444444444,0,0,0.010850694444444444,38.03168402777778,0)" xlink:href="#aV"/></g><path d="M135 0v-1490h581c339 0 533 192 533 485 0 204-94 351-264 424L1302 0H964L680-532H440V0H135zm305-779h220c186 0 274-77 274-226 0-150-88-233-275-233H440v459" id="bu"/><path d="M49 0l509-1490h400L1480 0h-339l-115-346H497L386 0H49zm524-585h374c-75-213-124-402-192-666-66 268-110 453-182 666" id="bv"/><path d="M795 20C377 20 94-272 94-743c0-483 302-767 694-767 335 0 593 206 635 500h-310c-42-142-154-229-320-229-230 0-389 177-389 493s154 495 393 495c212 0 340-120 345-311H818v-232h620v186c0 391-269 628-643 628" id="bw"/><g id="M"><use transform="matrix(0.010850694444444444,0,0,0.010850694444444444,0,0)" xlink:href="#bu"/><use transform="matrix(0.010850694444444444,0,0,0.010850694444444444,14.594184027777777,0)" xlink:href="#bv"/><use transform="matrix(0.010850694444444444,0,0,0.010850694444444444,30.251736111111104,0)" xlink:href="#bw"/></g><path d="M361 0L31-1118h315c68 295 127 523 188 845 63-317 128-551 199-845h276c71 296 131 525 196 846 57-321 119-552 186-846h319L1378 0h-305c-73-261-148-486-204-771C813-484 740-261 666 0H361" id="bx"/><g id="N"><use transform="matrix(0.010850694444444444,0,0,0.010850694444444444,0,0)" xlink:href="#ax"/><use transform="matrix(0.010850694444444444,0,0,0.010850694444444444,8.843315972222221,0)" xlink:href="#ak"/><use transform="matrix(0.010850694444444444,0,0,0.010850694444444444,17.588975694444443,0)" xlink:href="#ag"/><use transform="matrix(0.010850694444444444,0,0,0.010850694444444444,30.49045138888889,0)" xlink:href="#aQ"/><use transform="matrix(0.010850694444444444,0,0,0.010850694444444444,50.77039930555556,0)" xlink:href="#ar"/><use transform="matrix(0.010850694444444444,0,0,0.010850694444444444,63.70442708333333,0)" xlink:href="#bx"/><use transform="matrix(0.010850694444444444,0,0,0.010850694444444444,82.29166666666666,0)" xlink:href="#av"/><use transform="matrix(0.010850694444444444,0,0,0.010850694444444444,95.92013888888889,0)" xlink:href="#ak"/><use transform="matrix(0.010850694444444444,0,0,0.010850694444444444,105.3168402777778,0)" xlink:href="#aq"/></g><path d="M784 20c-382 0-662-292-662-764 0-473 280-766 662-766s660 293 660 766c0 472-278 764-660 764zm0-176c266 0 475-207 475-588 0-383-209-590-475-590-268 0-477 208-477 590 0 380 209 588 477 588" id="by"/><g id="O"><use transform="matrix(0.010850694444444444,0,0,0.010850694444444444,0,0)" xlink:href="#by"/><use transform="matrix(0.010850694444444444,0,0,0.010850694444444444,16.9921875,0)" xlink:href="#aH"/><use transform="matrix(0.010850694444444444,0,0,0.010850694444444444,30.598958333333332,0)" xlink:href="#aV"/><use transform="matrix(0.010850694444444444,0,0,0.010850694444444444,43.5546875,0)" xlink:href="#aM"/><use transform="matrix(0.010850694444444444,0,0,0.010850694444444444,56.68402777777778,0)" xlink:href="#aY"/><use transform="matrix(0.010850694444444444,0,0,0.010850694444444444,72.01605902777777,0)" xlink:href="#ba"/></g><g id="P"><use transform="matrix(0.010850694444444444,0,0,0.010850694444444444,0,0)" xlink:href="#bl"/><use transform="matrix(0.010850694444444444,0,0,0.010850694444444444,12.565104166666666,0)" xlink:href="#bl"/><use transform="matrix(0.010850694444444444,0,0,0.010850694444444444,25.130208333333332,0)" xlink:href="#bh"/></g><path d="M600 0L52-1490h200c166 485 304 806 458 1336 156-533 285-846 449-1336h202L819 0H600" id="bz"/><g id="Q"><use transform="matrix(0.010850694444444444,0,0,0.010850694444444444,0,0)" xlink:href="#bz"/><use transform="matrix(0.010850694444444444,0,0,0.010850694444444444,14.20355902777778,0)" xlink:href="#aV"/><use transform="matrix(0.010850694444444444,0,0,0.010850694444444444,27.159288194444443,0)" xlink:href="#br"/><use transform="matrix(0.010850694444444444,0,0,0.010850694444444444,39.85460069444444,0)" xlink:href="#aD"/><use transform="matrix(0.010850694444444444,0,0,0.010850694444444444,46.90755208333333,0)" xlink:href="#aT"/><use transform="matrix(0.010850694444444444,0,0,0.010850694444444444,60.23220486111112,0)" xlink:href="#aJ"/></g><g id="R"><use transform="matrix(0.010850694444444444,0,0,0.010850694444444444,0,0)" xlink:href="#aV"/><use transform="matrix(0.010850694444444444,0,0,0.010850694444444444,12.955729166666666,0)" xlink:href="#aU"/><use transform="matrix(0.010850694444444444,0,0,0.010850694444444444,32.421875,0)" xlink:href="#aF"/><use transform="matrix(0.010850694444444444,0,0,0.010850694444444444,46.02864583333333,0)" xlink:href="#aV"/><use transform="matrix(0.010850694444444444,0,0,0.010850694444444444,58.984374999999986,0)" xlink:href="#aB"/><use transform="matrix(0.010850694444444444,0,0,0.010850694444444444,72.59114583333333,0)" xlink:href="#aB"/><use transform="matrix(0.010850694444444444,0,0,0.010850694444444444,86.19791666666666,0)" xlink:href="#aC"/><use transform="matrix(0.010850694444444444,0,0,0.010850694444444444,91.57986111111111,0)" xlink:href="#aM"/><use transform="matrix(0.010850694444444444,0,0,0.010850694444444444,104.70920138888887,0)" xlink:href="#aW"/></g><path fill="#e81313" d="M789 20c-398 0-667-293-667-764 0-473 273-766 655-766 315 0 558 198 612 487h-196c-61-191-204-311-415-311-262 0-471 207-471 590 0 380 208 588 482 588 249 0 420-165 425-427H828v-166h572v163c0 370-256 606-611 606" id="bA"/><path fill="#e81313" d="M158 0v-1118h174v172h12c41-113 157-188 290-188 26 0 70 2 91 3v181c-11-2-60-10-108-10-161 0-279 109-279 260V0H158" id="bB"/><path fill="#e81313" d="M471 26C259 26 90-98 90-318c0-256 228-303 435-329 202-27 287-16 287-108 0-139-79-219-234-219-161 0-248 86-283 164l-173-57c86-203 278-265 451-265 150 0 419 46 419 395V0H815v-152h-12C765-73 660 26 471 26zm31-159c199 0 310-134 310-271v-155c-30 35-226 55-295 64-131 17-246 59-246 186 0 116 97 176 231 176" id="bC"/><path fill="#e81313" d="M158 418v-1536h174v179h20c37-59 106-193 324-193 279 0 474 222 474 576 0 356-194 580-473 580-213 0-288-135-325-197h-14v591H158zm492-555c209 0 317-186 317-421 0-232-105-413-317-413-206 0-314 166-314 413 0 249 111 421 314 421" id="bD"/><path fill="#e81313" d="M338-670V0H158v-1490h180v566c73-149 190-208 336-208 226 0 379 139 379 422V0H872v-695c0-172-96-275-252-275-161 0-282 109-282 300" id="bE"/><path fill="#e81313" d="M338-670V0H158v-1118h173l1 207c72-158 192-221 342-221 226 0 378 139 378 422V0H872v-695c0-172-96-275-252-275-161 0-282 109-282 300" id="bF"/><g id="S"><use transform="matrix(0.010850694444444444,0,0,0.010850694444444444,0,0)" xlink:href="#bA"/><use transform="matrix(0.010850694444444444,0,0,0.010850694444444444,16.57986111111111,0)" xlink:href="#bB"/><use transform="matrix(0.010850694444444444,0,0,0.010850694444444444,24.94574652777778,0)" xlink:href="#bC"/><use transform="matrix(0.010850694444444444,0,0,0.010850694444444444,37.424045138888886,0)" xlink:href="#bD"/><use transform="matrix(0.010850694444444444,0,0,0.010850694444444444,51.03081597222221,0)" xlink:href="#bE"/><use transform="matrix(0.010850694444444444,0,0,0.010850694444444444,64.17100694444443,0)" xlink:href="#bC"/><use transform="matrix(0.010850694444444444,0,0,0.010850694444444444,76.64930555555554,0)" xlink:href="#bF"/><use transform="matrix(0.010850694444444444,0,0,0.010850694444444444,89.77864583333331,0)" xlink:href="#bC"/></g><path fill="#e81313" d="M645 0H180v-1490h484c435 0 692 280 692 742 0 466-257 748-711 748zM370-168h263c363 0 539-218 539-580 0-358-176-574-521-574H370v1154" id="bG"/><path fill="#e81313" d="M538 24C308 24 148-78 108-271l171-41c32 123 123 178 257 178 156 0 256-77 256-169 0-77-54-128-164-154l-186-44c-203-48-300-148-300-305 0-192 176-326 414-326 230 0 351 112 402 269l-163 42c-31-80-94-158-238-158-133 0-233 69-233 162 0 83 57 129 188 160l169 40c203 48 298 149 298 302 0 196-179 339-441 339" id="bH"/><path fill="#e81313" d="M677 24c-213 0-288-135-325-197h-20V0H158v-1490h180v551h14c37-59 106-193 324-193 279 0 474 222 474 576 0 356-194 580-473 580zm-27-161c209 0 317-186 317-421 0-232-105-413-317-413-206 0-314 166-314 413 0 249 111 421 314 421" id="bI"/><path fill="#e81313" d="M613 24c-304 0-509-231-509-576 0-350 205-580 509-580 305 0 511 230 511 580 0 345-206 576-511 576zm0-161c226 0 329-195 329-415 0-222-103-419-329-419-223 0-326 196-326 419 0 220 103 415 326 415" id="bJ"/><path fill="#e81313" d="M577 24c-279 0-473-224-473-580 0-354 195-576 474-576 218 0 287 134 324 193h14v-551h180V0H922v-173h-20C865-111 790 24 577 24zm27-161c203 0 314-172 314-421 0-247-108-413-314-413-212 0-317 181-317 413 0 235 108 421 317 421" id="bK"/><g id="T"><use transform="matrix(0.010850694444444444,0,0,0.010850694444444444,0,0)" xlink:href="#bG"/><use transform="matrix(0.010850694444444444,0,0,0.010850694444444444,16.03732638888889,0)" xlink:href="#bC"/><use transform="matrix(0.010850694444444444,0,0,0.010850694444444444,28.515625,0)" xlink:href="#bH"/><use transform="matrix(0.010850694444444444,0,0,0.010850694444444444,40.24522569444444,0)" xlink:href="#bE"/><use transform="matrix(0.010850694444444444,0,0,0.010850694444444444,53.385416666666664,0)" xlink:href="#bI"/><use transform="matrix(0.010850694444444444,0,0,0.010850694444444444,66.9921875,0)" xlink:href="#bJ"/><use transform="matrix(0.010850694444444444,0,0,0.010850694444444444,80.53385416666666,0)" xlink:href="#bC"/><use transform="matrix(0.010850694444444444,0,0,0.010850694444444444,93.01215277777777,0)" xlink:href="#bB"/><use transform="matrix(0.010850694444444444,0,0,0.010850694444444444,101.00911458333333,0)" xlink:href="#bK"/><use transform="matrix(0.010850694444444444,0,0,0.010850694444444444,114.61588541666666,0)" xlink:href="#bH"/></g><g id="U"><use transform="matrix(0.010850694444444444,0,0,0.010850694444444444,0,0)" xlink:href="#bC"/><use transform="matrix(0.010850694444444444,0,0,0.010850694444444444,12.47829861111111,0)" xlink:href="#bF"/><use transform="matrix(0.010850694444444444,0,0,0.010850694444444444,25.60763888888889,0)" xlink:href="#bK"/></g><path fill="#e81313" d="M52 0l541-1490h220L1361 0h-200l-149-416H398L254 0H52zm404-582h497c-103-290-145-390-251-756-108 377-145 460-246 756" id="bL"/><path fill="#e81313" d="M338-1490V0H158v-1490h180" id="bM"/><path fill="#e81313" d="M628 24c-324 0-524-230-524-574 0-343 198-582 503-582 237 0 487 146 487 559v75H286c9 234 145 362 343 362 132 0 231-58 273-172l174 48C1024-91 857 24 628 24zM287-650h624c-17-190-120-322-304-322-192 0-309 151-320 322" id="bN"/><path fill="#e81313" d="M598-1118v154H368v674c0 100 37 144 132 144 23 0 62-6 92-12L629-6c-37 13-88 20-134 20-193 0-307-107-307-290v-688H20v-154h168v-266h180v266h230" id="bO"/><g id="V"><use transform="matrix(0.010850694444444444,0,0,0.010850694444444444,0,0)" xlink:href="#bL"/><use transform="matrix(0.010850694444444444,0,0,0.010850694444444444,15.33203125,0)" xlink:href="#bM"/><use transform="matrix(0.010850694444444444,0,0,0.010850694444444444,20.713975694444443,0)" xlink:href="#bN"/><use transform="matrix(0.010850694444444444,0,0,0.010850694444444444,33.66970486111111,0)" xlink:href="#bB"/><use transform="matrix(0.010850694444444444,0,0,0.010850694444444444,42.38281249999999,0)" xlink:href="#bO"/><use transform="matrix(0.010850694444444444,0,0,0.010850694444444444,49.435763888888886,0)" xlink:href="#bH"/></g><path d="M42 0l360-574-338-544h324c72 124 151 261 209 394 58-134 140-271 215-394h318L785-570 1146 0H824c-79-136-169-280-234-425C528-278 439-134 360 0H42" id="bP"/><g id="W"><use transform="matrix(0.010850694444444444,0,0,0.010850694444444444,0,0)" xlink:href="#az"/><use transform="matrix(0.010850694444444444,0,0,0.010850694444444444,16.93793402777778,0)" xlink:href="#an"/><use transform="matrix(0.010850694444444444,0,0,0.010850694444444444,30.97873263888889,0)" xlink:href="#al"/><use transform="matrix(0.010850694444444444,0,0,0.010850694444444444,37.00086805555556,0)" xlink:href="#am"/><use transform="matrix(0.010850694444444444,0,0,0.010850694444444444,50.83550347222222,0)" xlink:href="#bP"/></g><path d="M135 0v-1490h581c339 0 533 210 533 503 0 295-197 500-540 500H440V0H135zm305-733h220c186 0 274-104 274-254s-88-251-275-251H440v505" id="bQ"/><path d="M120 396l69-226c123 42 245 23 254-107l8-60L31-1118h319c87 288 199 559 259 872 72-308 185-583 277-872h315L726 132c-68 181-186 294-410 294-79 0-153-13-196-30" id="bR"/><g id="X"><use transform="matrix(0.010850694444444444,0,0,0.010850694444444444,0,0)" xlink:href="#bQ"/><use transform="matrix(0.010850694444444444,0,0,0.010850694444444444,14.398871527777777,0)" xlink:href="#ak"/><use transform="matrix(0.010850694444444444,0,0,0.010850694444444444,22.90581597222222,0)" xlink:href="#av"/><use transform="matrix(0.010850694444444444,0,0,0.010850694444444444,36.08940972222222,0)" xlink:href="#bP"/><use transform="matrix(0.010850694444444444,0,0,0.010850694444444444,48.98003472222222,0)" xlink:href="#bR"/></g><path d="M683-1118v229H474v562c0 71 29 104 102 104 23 0 73-7 95-13l43 225C647 9 580 16 520 16 296 16 174-96 174-301v-588H20v-229h154v-266h300v266h209" id="bS"/><g id="Y"><use transform="matrix(0.010850694444444444,0,0,0.010850694444444444,0,0)" xlink:href="#bu"/><use transform="matrix(0.010850694444444444,0,0,0.010850694444444444,14.322916666666666,0)" xlink:href="#ar"/><use transform="matrix(0.010850694444444444,0,0,0.010850694444444444,27.77777777777778,0)" xlink:href="#ag"/><use transform="matrix(0.010850694444444444,0,0,0.010850694444444444,40.67925347222222,0)" xlink:href="#ap"/><use transform="matrix(0.010850694444444444,0,0,0.010850694444444444,53.75434027777778,0)" xlink:href="#bS"/></g><path d="M135 0v-1490h980v253H440v416h609v249H440V0H135" id="bT"/><g id="Z"><use transform="matrix(0.010850694444444444,0,0,0.010850694444444444,0,0)" xlink:href="#bT"/><use transform="matrix(0.010850694444444444,0,0,0.010850694444444444,12.608506944444445,0)" xlink:href="#ak"/><use transform="matrix(0.010850694444444444,0,0,0.010850694444444444,21.115451388888886,0)" xlink:href="#av"/><use transform="matrix(0.010850694444444444,0,0,0.010850694444444444,34.74392361111111,0)" xlink:href="#am"/><use transform="matrix(0.010850694444444444,0,0,0.010850694444444444,48.57855902777778,0)" xlink:href="#bS"/><use transform="matrix(0.010850694444444444,0,0,0.010850694444444444,56.49956597222222,0)" xlink:href="#ar"/><use transform="matrix(0.010850694444444444,0,0,0.010850694444444444,69.73741319444444,0)" xlink:href="#am"/><use transform="matrix(0.010850694444444444,0,0,0.010850694444444444,83.57204861111111,0)" xlink:href="#as"/></g><g id="aa"><use transform="matrix(0.010850694444444444,0,0,0.010850694444444444,0,0)" xlink:href="#bw"/><use transform="matrix(0.010850694444444444,0,0,0.010850694444444444,16.67751736111111,0)" xlink:href="#av"/><use transform="matrix(0.010850694444444444,0,0,0.010850694444444444,30.305989583333332,0)" xlink:href="#au"/><use transform="matrix(0.010850694444444444,0,0,0.010850694444444444,36.328125,0)" xlink:href="#ag"/><use transform="matrix(0.010850694444444444,0,0,0.010850694444444444,49.22960069444444,0)" xlink:href="#am"/><use transform="matrix(0.010850694444444444,0,0,0.010850694444444444,63.06423611111111,0)" xlink:href="#an"/></g><path d="M428-647V0H128v-1490h294v586c65-146 175-228 341-228 232 0 385 159 385 421V0H847v-659c0-139-76-222-202-222-128 0-217 86-217 234" id="bU"/><g id="ab"><use transform="matrix(0.010850694444444444,0,0,0.010850694444444444,0,0)" xlink:href="#bv"/><use transform="matrix(0.010850694444444444,0,0,0.010850694444444444,16.590711805555554,0)" xlink:href="#aw"/><use transform="matrix(0.010850694444444444,0,0,0.010850694444444444,30.42534722222222,0)" xlink:href="#bS"/><use transform="matrix(0.010850694444444444,0,0,0.010850694444444444,38.61762152777778,0)" xlink:href="#bU"/></g><g id="ac"><use transform="matrix(0.010850694444444444,0,0,0.010850694444444444,0,0)" xlink:href="#ai"/><use transform="matrix(0.010850694444444444,0,0,0.010850694444444444,14.55078125,0)" xlink:href="#ar"/><use transform="matrix(0.010850694444444444,0,0,0.010850694444444444,27.78862847222222,0)" xlink:href="#ak"/><use transform="matrix(0.010850694444444444,0,0,0.010850694444444444,37.18532986111111,0)" xlink:href="#ah"/><use transform="matrix(0.010850694444444444,0,0,0.010850694444444444,50.509982638888886,0)" xlink:href="#al"/><use transform="matrix(0.010850694444444444,0,0,0.010850694444444444,56.53211805555555,0)" xlink:href="#ap"/><use transform="matrix(0.010850694444444444,0,0,0.010850694444444444,69.6072048611111,0)" xlink:href="#ar"/></g><g id="ad"><use transform="matrix(0.010850694444444444,0,0,0.010850694444444444,0,0)" xlink:href="#bQ"/><use transform="matrix(0.010850694444444444,0,0,0.010850694444444444,14.214409722222221,0)" xlink:href="#av"/><use transform="matrix(0.010850694444444444,0,0,0.010850694444444444,27.842881944444443,0)" xlink:href="#aR"/><use transform="matrix(0.010850694444444444,0,0,0.010850694444444444,40.28862847222222,0)" xlink:href="#bS"/><use transform="matrix(0.010850694444444444,0,0,0.010850694444444444,48.20963541666667,0)" xlink:href="#an"/><use transform="matrix(0.010850694444444444,0,0,0.010850694444444444,62.250434027777786,0)" xlink:href="#ak"/><use transform="matrix(0.010850694444444444,0,0,0.010850694444444444,70.75737847222223,0)" xlink:href="#ar"/><use transform="matrix(0.010850694444444444,0,0,0.010850694444444444,83.99522569444446,0)" xlink:href="#aR"/></g><g id="ae"><use transform="matrix(0.010850694444444444,0,0,0.010850694444444444,0,0)" xlink:href="#ay"/><use transform="matrix(0.010850694444444444,0,0,0.010850694444444444,16.048177083333332,0)" xlink:href="#ao"/></g></defs></g></svg>